<svg width="800" height="600" xmlns="http://www.w3.org/2000/svg">

 <g>
  <title>Layer 1</title>
  <g stroke="null">
   <g stroke="null">
    <path fill="#fff" stroke="#000" d="m54.97297,33.57483l670.06018,0c11.94336,0 22.79648,4.89068 30.65607,12.7441c7.86574,7.86574 12.75026,18.73734 12.75026,30.66839l0,460.48159c0,8.9991 -2.77796,17.38224 -7.52081,24.33637c-0.8685,2.24823 -2.2236,4.34248 -4.07762,6.12259c-1.23807,1.16415 -2.59933,2.11888 -4.04066,2.83955c-7.54545,6.2889 -17.24057,10.12014 -27.76724,10.12014l-670.06018,0c-11.93104,0 -22.79648,-4.88452 -30.66839,-12.75026c-7.85342,-7.85958 -12.7441,-18.7127 -12.7441,-30.66839l0,-460.48159c0,-11.95568 4.87836,-22.81496 12.73794,-30.66839c7.85958,-7.86574 18.71886,-12.7441 30.67455,-12.7441l0,0zm-10.11398,485.63102l234.82658,-235.41789l-234.82658,-191.46337l0,426.88126l0,0zm260.69052,-214.33376l-242.101,242.7108l651.0703,0l-231.36491,-242.67384l-76.27367,64.98938l0,0c-5.98092,5.11242 -14.9369,5.40192 -21.26892,0.26486l-80.06179,-65.2912l0,0zm202.92628,-21.53378l226.66518,237.7462l0,-430.85417l-226.66518,193.10796l0,0zm-442.29861,-216.46497l329.66513,268.79648l315.51049,-268.79648l-645.17561,0l0,0z"/>
   </g>
  </g>
 </g>
</svg>